<svg width="16" height="16" viewBox="0 0 16 16" fill="none" xmlns="http://www.w3.org/2000/svg">
<path d="M2 6.13333C2 6.00953 2 5.94763 2.00274 5.89533C2.05631 4.87309 2.87309 4.05631 3.89533 4.00274C3.94763 4 4.00953 4 4.13333 4H11.8667C11.9905 4 12.0524 4 12.1047 4.00274C13.1269 4.05631 13.9437 4.87309 13.9973 5.89533C14 5.94763 14 6.00953 14 6.13333C14 6.16428 14 6.17976 13.9993 6.19283C13.9859 6.44839 13.7817 6.65259 13.5262 6.66598C13.5131 6.66667 13.4976 6.66667 13.4667 6.66667H2.53333C2.50238 6.66667 2.48691 6.66667 2.47383 6.66598C2.21827 6.65259 2.01408 6.44839 2.00069 6.19283C2 6.17976 2 6.16428 2 6.13333Z" fill="#565F7E"/>
<path fill-rule="evenodd" clip-rule="evenodd" d="M2 10.0332C2 11.9188 2 12.8616 2.58579 13.4474C3.17157 14.0332 4.11438 14.0332 6 14.0332H10C11.8856 14.0332 12.8284 14.0332 13.4142 13.4474C14 12.8616 14 11.9188 14 10.0332V9.0332C14 8.5618 14 8.3261 13.8536 8.17965C13.7071 8.0332 13.4714 8.0332 13 8.0332H3C2.5286 8.0332 2.29289 8.0332 2.14645 8.17965C2 8.3261 2 8.5618 2 9.0332V10.0332ZM5 9.8332C5 9.7403 5 9.69385 5.00616 9.65499C5.04004 9.44104 5.20784 9.27324 5.42178 9.23936C5.46065 9.2332 5.5071 9.2332 5.6 9.2332H6.8C6.8929 9.2332 6.93935 9.2332 6.97822 9.23936C7.19216 9.27324 7.35996 9.44104 7.39384 9.65499C7.4 9.69385 7.4 9.7403 7.4 9.8332C7.4 9.9261 7.4 9.97255 7.39384 10.0114C7.35996 10.2254 7.19216 10.3932 6.97822 10.427C6.93935 10.4332 6.8929 10.4332 6.8 10.4332H5.6C5.5071 10.4332 5.46065 10.4332 5.42178 10.427C5.20784 10.3932 5.04004 10.2254 5.00616 10.0114C5 9.97255 5 9.9261 5 9.8332ZM5.00616 12.055C5 12.0939 5 12.1403 5 12.2332C5 12.3261 5 12.3726 5.00616 12.4114C5.04004 12.6254 5.20784 12.7932 5.42178 12.827C5.46065 12.8332 5.5071 12.8332 5.6 12.8332H6.8C6.8929 12.8332 6.93935 12.8332 6.97822 12.827C7.19216 12.7932 7.35996 12.6254 7.39384 12.4114C7.4 12.3726 7.4 12.3261 7.4 12.2332C7.4 12.1403 7.4 12.0939 7.39384 12.055C7.35996 11.841 7.19216 11.6732 6.97822 11.6394C6.93935 11.6332 6.8929 11.6332 6.8 11.6332H5.6C5.5071 11.6332 5.46065 11.6332 5.42178 11.6394C5.20784 11.6732 5.04004 11.841 5.00616 12.055ZM8.6 9.8332C8.6 9.7403 8.6 9.69385 8.60616 9.65499C8.64004 9.44104 8.80784 9.27324 9.02178 9.23936C9.06065 9.2332 9.1071 9.2332 9.2 9.2332H10.4C10.4929 9.2332 10.5394 9.2332 10.5782 9.23936C10.7922 9.27324 10.96 9.44104 10.9938 9.65499C11 9.69385 11 9.7403 11 9.8332C11 9.9261 11 9.97255 10.9938 10.0114C10.96 10.2254 10.7922 10.3932 10.5782 10.427C10.5394 10.4332 10.4929 10.4332 10.4 10.4332H9.2C9.1071 10.4332 9.06065 10.4332 9.02178 10.427C8.80784 10.3932 8.64004 10.2254 8.60616 10.0114C8.6 9.97255 8.6 9.9261 8.6 9.8332ZM8.60616 12.055C8.6 12.0939 8.6 12.1403 8.6 12.2332C8.6 12.3261 8.6 12.3726 8.60616 12.4114C8.64004 12.6254 8.80784 12.7932 9.02178 12.827C9.06065 12.8332 9.1071 12.8332 9.2 12.8332H10.4C10.4929 12.8332 10.5394 12.8332 10.5782 12.827C10.7922 12.7932 10.96 12.6254 10.9938 12.4114C11 12.3726 11 12.3261 11 12.2332C11 12.1403 11 12.0939 10.9938 12.055C10.96 11.841 10.7922 11.6732 10.5782 11.6394C10.5394 11.6332 10.4929 11.6332 10.4 11.6332H9.2C9.1071 11.6332 9.06065 11.6332 9.02178 11.6394C8.80784 11.6732 8.64004 11.841 8.60616 12.055Z" fill="#565F7E"/>
<path d="M4.6665 2.66699L4.6665 4.66699" stroke="#565F7E" stroke-width="2" stroke-linecap="round"/>
<path d="M10.6665 2.66699L10.6665 4.66699" stroke="#565F7E" stroke-width="2" stroke-linecap="round"/>
</svg>
