<svg width="16" height="16" viewBox="0 0 16 16" fill="none" xmlns="http://www.w3.org/2000/svg">
<path fill-rule="evenodd" clip-rule="evenodd" d="M8.398 13.1324C9.5265 12.5236 12.6668 10.5412 12.6668 7.33317C12.6668 4.75584 10.5775 2.6665 8.00016 2.6665C5.42283 2.6665 3.3335 4.75584 3.3335 7.33317C3.3335 10.5412 6.47383 12.5236 7.60232 13.1324C7.85302 13.2676 8.1473 13.2676 8.398 13.1324ZM8.00016 9.33317C9.10473 9.33317 10.0002 8.43774 10.0002 7.33317C10.0002 6.2286 9.10473 5.33317 8.00016 5.33317C6.89559 5.33317 6.00016 6.2286 6.00016 7.33317C6.00016 8.43774 6.89559 9.33317 8.00016 9.33317Z" fill="#565F7E"/>
</svg>
