<svg width="793" height="44" viewBox="0 0 793 44" fill="none" xmlns="http://www.w3.org/2000/svg">
<path d="M0 44C0 19.6995 19.6995 0 44 0H749C773.301 0 793 19.6995 793 44H0Z" fill="url(#paint0_linear_84_3979)"/>
<path d="M379.547 24.7344C379.547 24.5469 379.456 24.375 379.273 24.2188C379.096 24.0573 378.698 23.8411 378.078 23.5703C377.167 23.2005 376.539 22.8177 376.195 22.4219C375.857 22.026 375.688 21.5339 375.688 20.9453C375.688 20.2057 375.953 19.5964 376.484 19.1172C377.021 18.6328 377.729 18.3906 378.609 18.3906C379.536 18.3906 380.279 18.6302 380.836 19.1094C381.393 19.5885 381.672 20.2318 381.672 21.0391H379.461C379.461 20.3516 379.174 20.0078 378.602 20.0078C378.367 20.0078 378.174 20.0807 378.023 20.2266C377.872 20.3724 377.797 20.5755 377.797 20.8359C377.797 21.0234 377.88 21.1901 378.047 21.3359C378.214 21.4766 378.607 21.6797 379.227 21.9453C380.128 22.2786 380.763 22.651 381.133 23.0625C381.508 23.4688 381.695 23.9974 381.695 24.6484C381.695 25.4036 381.411 26.0104 380.844 26.4688C380.276 26.9271 379.531 27.1562 378.609 27.1562C377.99 27.1562 377.443 27.0365 376.969 26.7969C376.495 26.5521 376.122 26.2135 375.852 25.7812C375.586 25.349 375.453 24.8828 375.453 24.3828H377.555C377.565 24.7682 377.654 25.0573 377.82 25.25C377.992 25.4427 378.271 25.5391 378.656 25.5391C379.25 25.5391 379.547 25.2708 379.547 24.7344ZM386.125 25.3203C386.766 25.3203 387.091 24.9036 387.102 24.0703H389.18C389.169 24.9922 388.885 25.737 388.328 26.3047C387.771 26.8724 387.052 27.1562 386.172 27.1562C385.083 27.1562 384.253 26.8177 383.68 26.1406C383.107 25.4635 382.815 24.4661 382.805 23.1484V22.4766C382.805 21.1484 383.086 20.1354 383.648 19.4375C384.216 18.7396 385.052 18.3906 386.156 18.3906C387.089 18.3906 387.823 18.6797 388.359 19.2578C388.896 19.8307 389.169 20.6458 389.18 21.7031H387.102C387.096 21.2292 387.018 20.8646 386.867 20.6094C386.716 20.3542 386.466 20.2266 386.117 20.2266C385.732 20.2266 385.456 20.3646 385.289 20.6406C385.122 20.9115 385.034 21.4401 385.023 22.2266V23.0859C385.023 23.7734 385.057 24.2552 385.125 24.5312C385.193 24.8021 385.305 25.0026 385.461 25.1328C385.617 25.2578 385.839 25.3203 386.125 25.3203ZM394.602 20.6797L393.867 20.6172C393.263 20.6172 392.854 20.8828 392.641 21.4141V27H390.422V18.5469H392.508L392.57 19.4609C392.919 18.7474 393.401 18.3906 394.016 18.3906C394.266 18.3906 394.469 18.4245 394.625 18.4922L394.602 20.6797ZM399 27.1562C397.865 27.1562 396.979 26.8177 396.344 26.1406C395.708 25.4635 395.391 24.4948 395.391 23.2344V22.5625C395.391 21.2292 395.682 20.2005 396.266 19.4766C396.849 18.7526 397.685 18.3906 398.773 18.3906C399.836 18.3906 400.635 18.7318 401.172 19.4141C401.708 20.0911 401.982 21.0964 401.992 22.4297V23.5156H397.594C397.625 24.1406 397.763 24.599 398.008 24.8906C398.253 25.1771 398.63 25.3203 399.141 25.3203C399.88 25.3203 400.497 25.0677 400.992 24.5625L401.859 25.8984C401.589 26.2734 401.195 26.5781 400.68 26.8125C400.164 27.0417 399.604 27.1562 399 27.1562ZM397.609 21.9688H399.82V21.7656C399.81 21.2604 399.727 20.8776 399.57 20.6172C399.414 20.3568 399.143 20.2266 398.758 20.2266C398.372 20.2266 398.091 20.3646 397.914 20.6406C397.742 20.9167 397.641 21.3594 397.609 21.9688ZM406.656 27.1562C405.521 27.1562 404.635 26.8177 404 26.1406C403.365 25.4635 403.047 24.4948 403.047 23.2344V22.5625C403.047 21.2292 403.339 20.2005 403.922 19.4766C404.505 18.7526 405.341 18.3906 406.43 18.3906C407.492 18.3906 408.292 18.7318 408.828 19.4141C409.365 20.0911 409.638 21.0964 409.648 22.4297V23.5156H405.25C405.281 24.1406 405.419 24.599 405.664 24.8906C405.909 25.1771 406.286 25.3203 406.797 25.3203C407.536 25.3203 408.154 25.0677 408.648 24.5625L409.516 25.8984C409.245 26.2734 408.852 26.5781 408.336 26.8125C407.82 27.0417 407.26 27.1562 406.656 27.1562ZM405.266 21.9688H407.477V21.7656C407.466 21.2604 407.383 20.8776 407.227 20.6172C407.07 20.3568 406.799 20.2266 406.414 20.2266C406.029 20.2266 405.747 20.3646 405.57 20.6406C405.398 20.9167 405.297 21.3594 405.266 21.9688ZM412.922 18.5469L412.984 19.3828C413.484 18.7214 414.138 18.3906 414.945 18.3906C416.398 18.3906 417.146 19.4089 417.188 21.4453V27H414.969V21.6094C414.969 21.1302 414.896 20.7839 414.75 20.5703C414.609 20.3516 414.359 20.2422 414 20.2422C413.599 20.2422 413.286 20.4479 413.062 20.8594V27H410.844V18.5469H412.922Z" fill="#C8CEDD"/>
<defs>
<linearGradient id="paint0_linear_84_3979" x1="0" y1="22" x2="793" y2="22" gradientUnits="userSpaceOnUse">
<stop stop-color="#2C344E"/>
<stop offset="1" stop-color="#516199"/>
</linearGradient>
</defs>
</svg>
