<svg width="16" height="16" viewBox="0 0 16 16" fill="none" xmlns="http://www.w3.org/2000/svg">
<path d="M2.9546 3.51493C3.13649 2.78737 3.22744 2.42359 3.4987 2.21179C3.76996 2 4.14493 2 4.89489 2H11.1051C11.8551 2 12.23 2 12.5013 2.21179C12.7726 2.42359 12.8635 2.78737 13.0454 3.51493L13.7216 6.21959C13.863 6.78531 13.4259 7.33333 12.8427 7.33333C11.9787 7.33333 11.2292 6.70866 11.0872 5.85638C11.0708 5.75792 10.9292 5.75792 10.9128 5.85638L10.8585 6.18254C10.7478 6.84661 10.1732 7.33333 9.5 7.33333C8.82677 7.33333 8.25221 6.84661 8.14153 6.18254L8.08717 5.85638C8.07076 5.75792 7.92924 5.75792 7.91283 5.85638L7.85847 6.18254C7.74779 6.84661 7.17323 7.33333 6.5 7.33333C5.82677 7.33333 5.25221 6.84661 5.14153 6.18254L5.08717 5.85638C5.07076 5.75792 4.92924 5.75792 4.91283 5.85638C4.77078 6.70866 4.02131 7.33333 3.15727 7.33333C2.57414 7.33333 2.137 6.78532 2.27844 6.21959L2.9546 3.51493Z" fill="#565F7E"/>
<path fill-rule="evenodd" clip-rule="evenodd" d="M3.37042 8.82665C3.3335 9.31535 3.3335 9.91645 3.3335 10.6669V12.6669C3.3335 13.6097 3.3335 14.0811 3.62639 14.374C3.91928 14.6669 4.39069 14.6669 5.3335 14.6669H6.66683V12.3335C6.66683 11.7813 7.11454 11.3335 7.66683 11.3335H8.3335C8.88578 11.3335 9.3335 11.7813 9.3335 12.3335V14.6669H10.6668C11.6096 14.6669 12.081 14.6669 12.3739 14.374C12.6668 14.0811 12.6668 13.6097 12.6668 12.6669V10.6669C12.6668 9.91645 12.6668 9.31535 12.6299 8.82665C12.081 8.79103 11.5618 8.61873 11.1119 8.33984C10.6494 8.65284 10.0931 8.83355 9.50016 8.83355C8.95423 8.83355 8.43936 8.68035 8.00016 8.41175C7.56097 8.68035 7.04609 8.83355 6.50016 8.83355C5.90724 8.83355 5.35095 8.65284 4.88846 8.33984C4.43856 8.61873 3.91929 8.79103 3.37042 8.82665Z" fill="#565F7E"/>
</svg>
