<svg width="32" height="32" viewBox="0 0 32 32" fill="none" xmlns="http://www.w3.org/2000/svg">
<path fill-rule="evenodd" clip-rule="evenodd" d="M16.4025 26.4708C18.1914 25.5625 25.3334 21.5081 25.3334 14.6663C25.3334 9.51168 21.1547 5.33301 16 5.33301C10.8454 5.33301 6.66669 9.51168 6.66669 14.6663C6.66669 21.5081 13.8086 25.5625 15.5975 26.4708C15.8515 26.5997 16.1485 26.5997 16.4025 26.4708ZM16 18.6663C18.2092 18.6663 20 16.8755 20 14.6663C20 12.4572 18.2092 10.6663 16 10.6663C13.7909 10.6663 12 12.4572 12 14.6663C12 16.8755 13.7909 18.6663 16 18.6663Z" fill="#4E7BEE"/>
</svg>
