<svg width="52" height="52" viewBox="0 0 52 52" fill="none" xmlns="http://www.w3.org/2000/svg">
<rect width="52" height="52" rx="26" fill="#21263F"/>
<path fill-rule="evenodd" clip-rule="evenodd" d="M26.4026 36.4708C28.1915 35.5625 35.3334 31.5081 35.3334 24.6663C35.3334 19.5117 31.1547 15.333 26.0001 15.333C20.8454 15.333 16.6667 19.5117 16.6667 24.6663C16.6667 31.5081 23.8087 35.5625 25.5976 36.4708C25.8516 36.5997 26.1486 36.5997 26.4026 36.4708ZM26.0001 28.6663C28.2092 28.6663 30.0001 26.8755 30.0001 24.6663C30.0001 22.4572 28.2092 20.6663 26.0001 20.6663C23.7909 20.6663 22.0001 22.4572 22.0001 24.6663C22.0001 26.8755 23.7909 28.6663 26.0001 28.6663Z" fill="#4E7BEE"/>
</svg>
